<?xml version="1.0" encoding="utf-8"?>
<svg viewBox="-1611.761 -113.083 2915.091 501.643" xmlns="http://www.w3.org/2000/svg">
  <g transform="matrix(1, 0, 0, 1, -2090.405029, -350.388611)">
    <g id="CinemaScope">
      <path class="st0" d="M 662.984 453.065 C 662.784 406.565 662.484 359.965 662.184 313.465 C 662.184 311.365 662.184 309.265 662.084 307.265 C 661.984 305.465 661.284 304.665 659.584 304.165 C 658.984 303.965 658.284 303.965 657.684 303.865 C 648.584 302.365 639.384 300.765 630.284 299.265 C 614.784 296.865 599.384 294.465 583.884 292.065 C 578.684 291.265 578.684 291.265 578.784 296.265 C 578.784 296.865 578.784 297.565 578.884 298.165 C 579.484 321.665 580.084 345.165 580.684 368.665 C 580.984 380.465 581.284 392.365 581.584 404.165 C 581.584 405.965 581.584 407.665 581.584 409.465 C 581.584 409.965 581.284 410.465 580.784 410.465 C 580.384 410.465 579.884 410.165 579.684 409.765 C 578.684 408.165 577.684 406.465 576.684 404.865 C 565.784 385.665 554.884 366.565 544.084 347.265 C 532.584 326.765 521.184 306.265 510.184 285.465 C 507.584 280.565 507.484 280.665 502.284 279.865 C 490.884 278.165 479.484 276.565 468.184 274.665 C 454.784 272.365 441.484 269.865 428.084 267.465 C 426.784 267.265 425.584 267.165 424.284 267.065 C 423.084 266.965 422.384 267.565 422.384 268.665 C 422.284 270.565 422.284 272.465 422.284 274.465 C 422.284 326.465 422.284 378.465 422.284 430.465 C 422.284 482.465 422.284 534.465 422.284 586.465 C 422.284 588.565 422.284 590.665 422.384 592.665 C 422.484 594.565 423.184 595.165 424.984 595.365 C 425.784 595.465 426.584 595.465 427.384 595.465 C 451.384 595.565 475.384 595.565 499.384 595.665 C 506.584 595.665 505.984 595.865 505.984 589.265 C 505.484 552.765 504.984 516.365 504.384 479.865 C 504.284 471.365 504.184 462.865 504.084 454.465 C 504.084 453.465 504.084 452.565 504.184 451.565 C 504.184 451.365 504.584 451.065 504.784 450.965 C 505.084 450.965 505.484 451.065 505.584 451.265 C 506.884 453.465 508.184 455.665 509.384 457.865 C 533.784 502.265 558.184 546.665 582.584 590.965 C 583.184 592.065 583.884 593.165 584.484 594.265 C 585.284 595.665 586.284 596.465 587.984 596.365 C 588.584 596.365 589.284 596.365 589.884 596.365 C 612.584 596.365 635.284 596.565 657.984 595.665 C 663.084 595.465 663.084 595.465 663.084 590.065 C 663.184 544.565 663.184 498.765 662.984 453.065 Z M 865.784 528.465 C 865.184 528.465 864.484 528.465 863.884 528.465 C 840.884 528.465 817.784 528.465 794.784 528.465 C 793.384 528.465 791.884 528.465 790.484 528.365 C 788.484 528.265 787.984 527.765 787.984 525.665 C 787.984 515.465 787.984 505.165 787.984 494.965 C 787.984 492.565 788.384 492.165 790.684 492.065 C 791.684 492.065 792.584 492.065 793.584 492.065 C 807.484 492.065 821.384 492.065 835.384 492.065 C 843.684 492.065 842.984 492.965 842.984 484.765 C 842.984 472.265 842.984 459.765 842.984 447.365 C 842.984 443.965 842.984 440.665 842.984 437.265 C 842.984 434.365 842.584 433.865 839.784 433.565 C 835.984 433.065 832.184 432.665 828.384 432.265 C 820.784 431.365 813.084 430.565 805.484 429.665 C 801.084 429.165 796.584 428.565 792.184 427.965 C 790.284 427.665 790.184 427.465 790.084 425.465 C 789.984 424.365 789.984 423.265 789.984 422.065 C 789.984 413.765 789.984 405.465 789.984 397.065 C 789.984 391.965 789.484 391.765 795.284 392.165 C 801.684 392.665 807.984 393.365 814.384 393.965 C 829.684 395.365 844.984 396.665 860.284 398.165 C 865.184 398.665 865.484 398.465 865.484 393.665 C 865.484 374.965 865.484 356.265 865.484 337.465 C 865.484 336.665 865.484 335.865 865.484 335.065 C 865.284 332.465 864.984 332.065 862.384 331.665 C 855.084 330.665 847.784 329.665 840.584 328.665 C 823.384 326.265 806.084 323.765 788.884 321.265 C 776.384 319.465 763.884 317.865 751.384 316.065 C 738.884 314.265 726.384 312.465 713.884 310.765 C 709.084 310.065 708.684 310.465 708.684 315.365 C 708.684 361.565 708.684 407.865 708.684 454.065 C 708.684 499.065 708.684 543.965 708.684 588.965 C 708.684 590.565 708.684 592.165 708.684 593.765 C 708.784 598.365 708.984 598.565 713.684 598.565 C 763.784 598.565 813.784 598.565 863.884 598.565 C 864.984 598.565 866.084 598.565 867.284 598.465 C 868.384 598.365 869.084 597.765 869.184 596.665 C 869.284 595.065 869.384 593.465 869.384 591.865 C 869.384 573.165 869.384 554.465 869.384 535.665 C 869.384 534.365 869.384 533.065 869.284 531.865 C 868.984 528.965 868.684 528.565 865.784 528.465 Z M 1162.084 347.365 C 1160.984 347.265 1159.884 347.265 1158.784 347.165 C 1152.684 347.065 1146.584 347.065 1140.584 346.865 C 1119.184 346.165 1097.784 345.365 1076.384 344.065 C 1070.184 343.665 1070.984 343.565 1069.184 349.165 C 1057.784 385.265 1047.684 421.765 1037.784 458.265 C 1037.184 460.565 1036.484 462.865 1035.684 465.765 C 1034.384 464.265 1034.184 463.165 1033.984 462.065 C 1029.884 442.665 1025.684 423.365 1021.484 403.965 C 1017.084 383.665 1012.484 363.465 1007.984 343.165 C 1007.184 339.765 1006.984 339.565 1003.684 339.065 C 1002.384 338.865 1001.184 338.765 999.884 338.665 C 987.884 337.665 975.984 336.765 963.984 335.765 C 950.884 334.665 937.884 333.665 924.784 332.565 C 920.284 332.165 915.884 331.865 911.384 331.365 C 905.384 330.665 905.284 330.665 905.284 336.865 C 905.284 422.265 905.284 507.665 905.284 593.165 C 905.284 598.965 905.284 598.765 910.784 598.765 C 930.584 598.765 950.484 598.865 970.284 598.865 C 977.784 598.865 977.284 599.465 977.284 591.865 C 977.284 558.565 977.284 525.365 977.284 492.065 C 977.284 487.465 977.584 486.365 978.184 486.965 C 979.584 488.265 979.484 490.165 979.884 491.765 C 986.084 517.565 992.184 543.365 998.384 569.165 C 1000.484 578.065 1002.784 586.865 1004.984 595.665 C 1005.784 598.765 1006.084 598.965 1009.184 599.065 C 1009.484 599.065 1009.784 599.065 1010.184 599.065 C 1026.684 599.065 1043.184 599.065 1059.584 599.065 C 1064.184 599.065 1064.184 599.065 1065.284 594.465 C 1070.484 572.265 1075.684 549.965 1080.984 527.765 C 1083.884 515.465 1086.984 503.265 1090.084 491.065 C 1090.284 490.165 1090.084 488.765 1091.584 488.265 C 1092.184 490.165 1091.884 492.065 1091.884 493.865 C 1091.884 517.565 1091.784 541.165 1091.784 564.865 C 1091.784 574.765 1091.984 584.665 1092.184 594.565 C 1092.284 598.765 1092.384 598.765 1096.584 598.765 C 1113.984 598.665 1131.484 598.565 1148.884 598.465 C 1152.384 598.465 1155.884 598.465 1159.484 598.265 C 1163.584 598.065 1163.784 597.765 1163.884 593.865 C 1163.884 593.365 1163.884 592.865 1163.884 592.465 C 1163.184 540.965 1163.184 489.465 1163.184 437.965 C 1163.184 409.965 1163.384 381.965 1164.284 353.965 C 1164.284 352.565 1164.384 351.065 1164.284 349.665 C 1164.084 348.265 1163.284 347.465 1162.084 347.365 Z M 380.884 263.865 C 380.884 262.565 380.884 261.265 380.884 260.065 C 380.884 258.565 380.184 257.665 378.784 257.265 C 377.384 256.865 375.984 256.465 374.584 256.165 C 346.084 249.165 317.584 242.065 289.084 235.065 C 285.084 234.065 280.984 233.165 276.984 232.265 C 276.084 232.065 275.384 232.465 275.384 233.465 C 275.284 235.665 275.184 237.965 275.184 240.165 C 275.184 298.065 275.184 355.965 275.184 413.865 C 275.184 472.065 275.184 530.365 275.184 588.565 C 275.184 590.365 275.184 592.065 275.284 593.865 C 275.384 595.265 275.984 595.865 277.384 595.965 C 279.984 596.165 282.484 596.265 285.084 596.265 C 314.984 596.265 344.884 596.265 374.784 596.265 C 375.884 596.265 376.984 596.265 378.184 596.165 C 380.384 595.965 380.884 595.465 380.984 593.065 C 381.084 591.265 381.084 589.565 381.084 587.765 C 380.884 479.865 380.884 371.865 380.884 263.865 Z M 236.884 174.765 C 236.884 173.465 236.884 172.165 236.884 170.965 C 236.884 169.565 236.184 168.565 234.984 167.865 C 231.884 166.165 228.684 164.765 225.384 163.665 C 212.484 159.365 199.684 154.965 186.784 150.765 C 158.184 141.165 129.384 132.165 99.784 125.965 C 85.384 122.965 70.884 120.665 56.084 120.365 C 36.784 119.865 18.284 123.365 0.584 131.065 C -14.016 137.465 -27.016 146.365 -38.916 156.965 C -51.916 168.565 -63.016 181.765 -73.316 195.565 C -97.116 227.265 -110.516 263.065 -116.216 301.965 C -117.816 313.065 -118.916 324.165 -119.416 335.365 C -120.616 361.665 -120.016 387.765 -115.316 413.765 C -111.516 435.265 -105.116 455.965 -95.416 475.565 C -83.316 500.065 -66.816 521.265 -47.216 540.265 C -31.916 555.065 -15.016 567.565 4.084 576.865 C 28.884 588.965 54.984 595.365 82.584 595.565 C 105.984 595.665 129.284 595.565 141.584 595.565 C 178.384 596.365 204.184 595.965 229.984 595.965 C 235.784 595.965 235.484 596.065 235.484 590.465 C 235.484 557.865 235.584 525.165 235.584 492.565 C 235.584 491.265 235.584 489.965 235.484 488.765 C 235.284 487.065 234.684 486.465 232.984 486.465 C 230.584 486.365 228.184 486.365 225.784 486.465 C 194.284 486.765 162.784 486.965 131.184 486.265 C 118.684 485.965 106.284 485.565 93.884 483.565 C 82.584 481.665 71.784 478.665 61.784 472.965 C 33.284 456.765 14.284 433.165 5.484 401.465 C 2.384 390.165 0.684 378.665 -0.416 367.065 C -1.916 351.665 -1.316 336.365 1.784 321.265 C 7.284 295.065 19.984 272.865 39.384 254.665 C 50.184 244.465 63.284 239.565 78.184 239.665 C 84.284 239.665 90.284 240.865 96.184 242.065 C 110.584 245.065 124.784 248.665 139.084 252.065 C 162.984 257.765 186.884 263.465 210.884 269.065 C 218.484 270.865 226.184 272.465 233.784 274.165 C 236.084 274.665 236.684 274.065 236.784 271.765 C 236.784 270.965 236.784 270.165 236.784 269.365 C 236.884 237.865 236.884 206.265 236.884 174.765 Z M 1428.784 589.865 C 1411.184 546.865 1394.284 503.565 1377.984 460.065 C 1365.084 425.665 1352.584 391.165 1338.784 357.065 C 1336.284 350.765 1336.584 351.865 1331.284 351.865 C 1309.984 351.865 1288.684 351.865 1267.484 351.965 C 1266.684 351.965 1265.884 352.065 1265.084 351.965 C 1263.384 351.765 1262.384 352.665 1261.784 354.165 C 1261.484 354.865 1261.284 355.665 1260.984 356.465 C 1253.784 379.165 1245.984 401.665 1238.284 424.165 C 1219.184 480.465 1199.984 536.665 1179.584 592.465 C 1177.484 598.165 1177.184 598.565 1183.684 598.565 C 1204.684 598.565 1225.584 598.565 1246.584 598.565 C 1247.584 598.565 1248.484 598.565 1249.484 598.465 C 1250.884 598.365 1251.884 597.665 1252.384 596.265 C 1252.784 595.065 1253.284 593.865 1253.584 592.665 C 1256.184 584.565 1258.784 576.565 1261.184 568.465 C 1262.984 562.565 1263.184 563.365 1268.084 563.365 C 1290.184 563.365 1312.284 563.365 1334.284 563.365 C 1335.084 563.365 1335.884 563.465 1336.684 563.365 C 1338.784 563.165 1339.984 564.165 1340.584 566.065 C 1340.884 567.165 1341.284 568.165 1341.684 569.265 C 1344.584 577.365 1347.484 585.565 1350.284 593.665 C 1350.584 594.465 1350.784 595.165 1351.084 595.965 C 1351.584 597.665 1352.684 598.665 1354.584 598.565 C 1355.584 598.565 1356.484 598.565 1357.484 598.565 C 1368.884 598.565 1380.184 598.565 1391.584 598.565 C 1402.484 598.565 1413.384 598.565 1424.184 598.565 C 1425.584 598.565 1427.084 598.565 1428.484 598.565 C 1431.384 598.465 1431.784 597.965 1430.684 594.965 C 1430.184 593.165 1429.484 591.565 1428.784 589.865 Z M 1322.284 517.165 C 1315.584 517.165 1308.884 517.165 1302.184 517.165 L 1302.184 517.265 C 1296.284 517.265 1290.384 517.265 1284.484 517.265 C 1283.184 517.265 1281.884 517.265 1280.684 517.165 C 1279.684 517.065 1279.384 516.365 1279.584 515.465 C 1279.684 514.865 1279.884 514.265 1280.084 513.665 C 1286.184 497.065 1292.084 480.365 1299.184 464.165 C 1299.484 463.465 1299.884 462.765 1300.284 462.065 C 1300.584 461.465 1301.484 461.465 1301.784 462.065 C 1302.284 463.065 1302.884 464.065 1303.284 465.065 C 1310.084 481.065 1316.884 497.065 1323.584 513.065 C 1323.784 513.465 1323.984 513.965 1324.084 514.365 C 1324.984 516.465 1324.684 517.165 1322.284 517.165 Z M 2759.884 107.365 C 2759.884 105.765 2760.184 104.165 2759.284 102.365 C 2756.584 103.165 2753.884 103.865 2751.084 104.665 C 2705.584 118.865 2659.984 133.065 2614.484 147.265 C 2591.784 154.365 2569.084 161.365 2546.384 168.465 C 2541.684 169.965 2541.884 168.865 2541.884 174.765 C 2541.884 175.065 2541.884 175.365 2541.884 175.765 C 2541.884 238.465 2541.884 301.165 2541.884 363.965 C 2541.884 437.304 2541.884 510.549 2541.884 583.883 C 2541.884 585.943 2541.884 588.004 2541.884 590.065 C 2541.884 597.165 2541.484 596.765 2548.784 596.765 C 2615.784 596.765 2682.884 596.765 2749.884 596.765 C 2751.484 596.765 2753.084 596.765 2754.684 596.765 C 2758.684 596.665 2758.884 596.465 2758.884 592.265 C 2758.884 564.565 2758.884 536.865 2758.884 509.265 C 2758.884 503.965 2758.784 503.965 2753.484 503.965 C 2753.284 503.965 2753.184 503.965 2752.984 503.965 C 2720.184 503.965 2687.384 503.965 2654.584 503.965 C 2653.184 503.965 2651.684 503.965 2650.284 503.965 C 2647.884 503.865 2647.484 503.465 2647.284 501.165 C 2647.284 500.365 2647.284 499.565 2647.284 498.765 C 2647.284 469.165 2647.284 439.565 2647.284 409.965 C 2647.284 403.865 2646.984 403.965 2653.284 403.965 C 2678.684 403.965 2704.184 403.965 2729.584 403.965 C 2737.484 403.965 2737.184 405.165 2737.184 396.565 C 2737.184 375.565 2737.184 354.665 2737.184 333.665 C 2737.184 324.365 2737.184 315.065 2737.184 305.865 C 2737.184 300.865 2737.084 300.765 2731.984 301.265 C 2724.784 301.965 2717.684 302.765 2710.484 303.465 C 2707.184 303.765 2703.784 304.165 2700.484 304.565 C 2693.384 305.365 2686.184 306.165 2679.084 306.965 C 2670.984 307.865 2662.884 308.665 2654.784 309.665 C 2649.384 310.265 2649.384 309.565 2649.384 304.765 C 2649.384 283.365 2649.384 261.865 2649.384 240.465 C 2649.384 239.665 2649.384 238.865 2649.384 238.065 C 2649.484 235.465 2649.784 235.165 2652.284 234.365 C 2653.384 234.065 2654.484 233.765 2655.484 233.465 C 2673.784 228.865 2691.984 224.265 2710.284 219.765 C 2725.184 216.065 2739.984 212.265 2754.884 208.565 C 2760.684 207.065 2759.784 207.065 2759.784 202.265 C 2759.984 170.365 2759.984 138.865 2759.884 107.365 Z M 1675.284 401.365 C 1664.084 397.365 1652.284 395.665 1640.484 395.265 C 1625.284 394.665 1610.084 394.565 1594.884 394.165 C 1589.584 394.065 1584.284 393.965 1579.084 393.865 C 1576.084 393.765 1572.984 393.565 1569.984 393.165 C 1563.684 392.365 1558.784 389.565 1556.484 383.265 C 1554.584 378.165 1554.584 372.965 1556.384 367.765 C 1557.684 364.165 1560.084 361.365 1563.484 359.765 C 1565.984 358.565 1568.584 357.765 1571.284 357.765 C 1573.484 357.665 1575.784 357.665 1577.984 357.465 C 1597.584 356.265 1617.284 355.565 1636.984 355.565 C 1662.884 355.565 1688.784 355.565 1714.684 355.565 C 1720.284 355.565 1720.284 355.465 1720.284 349.965 C 1720.284 324.365 1720.284 298.765 1720.284 273.165 C 1720.284 267.565 1720.184 267.565 1714.784 267.665 C 1705.184 267.965 1695.584 268.265 1685.984 268.565 C 1666.284 269.165 1646.684 269.865 1626.984 270.465 C 1626.984 270.365 1626.984 270.365 1626.984 270.265 C 1597.284 271.265 1567.484 272.265 1537.784 273.365 C 1531.184 273.565 1524.784 274.865 1518.484 276.565 C 1503.584 280.765 1490.584 288.165 1478.584 297.765 C 1467.984 306.165 1459.784 316.465 1454.284 328.865 C 1442.784 354.665 1441.384 381.165 1450.684 407.865 C 1459.184 432.265 1475.584 449.565 1499.684 459.365 C 1512.084 464.365 1525.084 466.865 1538.284 468.165 C 1547.684 469.065 1557.084 469.065 1566.584 469.365 C 1583.684 470.065 1600.784 469.665 1617.884 471.865 C 1625.584 472.865 1630.884 476.665 1634.684 483.065 C 1635.984 485.165 1636.484 487.465 1635.884 489.965 C 1633.884 498.765 1629.384 505.465 1620.484 508.665 C 1613.184 511.365 1605.584 512.165 1597.884 512.165 C 1548.484 512.465 1498.984 512.765 1449.584 513.165 C 1448.484 513.165 1447.384 513.165 1446.184 513.165 C 1444.184 513.265 1443.684 513.765 1443.584 515.765 C 1443.484 518.665 1443.484 521.565 1443.484 524.365 C 1443.484 547.565 1443.484 570.765 1443.484 593.965 C 1443.484 598.165 1443.684 598.265 1447.784 598.365 C 1448.284 598.365 1448.784 598.365 1449.184 598.365 C 1465.984 598.365 1482.784 598.365 1499.584 598.465 C 1536.584 598.565 1573.484 598.365 1610.484 599.065 C 1621.984 599.265 1633.484 598.165 1644.784 595.765 C 1673.284 589.765 1696.684 575.465 1714.984 553.065 C 1737.984 525.065 1743.684 485.965 1729.484 452.765 C 1718.984 428.065 1701.084 410.465 1675.284 401.365 Z M 2234.784 346.365 C 2224.084 322.465 2207.984 303.365 2185.184 290.165 C 2162.984 277.365 2138.884 271.265 2113.384 270.565 C 2099.584 270.165 2085.984 272.465 2072.784 276.565 C 2045.484 285.165 2022.584 300.765 2003.184 321.565 C 1990.684 334.965 1981.684 350.465 1974.784 367.365 C 1962.784 396.565 1958.384 426.965 1960.884 458.465 C 1962.184 474.365 1965.384 489.765 1970.784 504.765 C 1977.184 522.665 1986.184 539.165 1999.084 553.365 C 2023.484 580.165 2054.084 594.865 2089.984 598.665 C 2101.184 599.865 2112.284 599.665 2123.484 597.965 C 2135.684 596.065 2147.484 592.865 2158.784 587.765 C 2171.484 582.065 2182.584 574.065 2192.884 564.965 C 2214.584 545.965 2230.584 522.965 2240.184 495.665 C 2244.584 483.065 2247.384 470.165 2249.084 456.965 C 2250.384 447.265 2250.584 437.565 2250.984 429.165 C 2250.484 414.365 2249.884 400.965 2247.284 387.765 C 2244.484 373.365 2240.684 359.465 2234.784 346.365 Z M 2156.984 451.565 C 2153.584 465.065 2147.884 477.465 2138.884 488.165 C 2132.184 496.165 2123.984 501.565 2113.784 503.865 C 2105.784 505.565 2097.884 505.065 2090.284 502.165 C 2081.484 498.765 2074.484 493.165 2068.984 485.665 C 2062.684 477.165 2059.084 467.465 2057.384 457.065 C 2053.684 435.165 2056.584 414.065 2064.884 393.665 C 2066.484 389.665 2068.584 385.865 2070.884 382.165 C 2074.884 375.865 2079.984 370.665 2086.184 366.465 C 2101.584 356.265 2121.284 356.765 2136.284 369.765 C 2142.684 375.365 2147.484 382.065 2150.884 389.765 C 2156.484 402.965 2159.584 416.765 2160.184 431.165 C 2160.284 438.165 2158.584 444.865 2156.984 451.565 Z M 2492.084 241.465 C 2478.384 226.665 2461.684 216.765 2441.984 212.265 C 2428.684 209.265 2415.284 209.765 2401.884 211.265 C 2392.984 212.265 2384.184 213.865 2375.384 215.665 C 2361.884 218.365 2348.384 220.765 2335.084 223.965 C 2317.284 228.365 2299.484 232.865 2281.684 237.265 C 2278.884 237.965 2276.084 238.765 2273.284 239.365 C 2271.784 239.665 2271.084 240.565 2271.084 242.065 C 2271.084 243.965 2270.984 245.865 2270.984 247.865 C 2270.984 304.465 2270.984 361.165 2270.984 417.765 L 2270.984 428.765 C 2270.984 481.365 2270.984 534.065 2270.984 586.665 C 2270.984 589.065 2270.984 591.465 2271.084 593.865 C 2271.184 595.265 2271.784 595.865 2273.184 595.965 C 2273.984 596.065 2274.784 596.065 2275.584 596.065 C 2302.584 596.065 2329.684 596.065 2356.684 596.065 C 2364.384 596.065 2363.584 596.865 2363.584 589.065 C 2363.584 556.065 2363.584 523.165 2363.584 490.165 C 2363.584 489.165 2363.584 488.265 2363.584 487.265 C 2363.784 485.265 2364.284 484.465 2366.484 484.265 C 2376.484 483.065 2386.484 481.865 2396.484 480.565 C 2404.284 479.565 2412.084 479.265 2419.784 477.865 C 2439.284 474.365 2456.784 466.665 2471.584 453.565 C 2495.984 432.065 2511.484 405.165 2518.784 373.565 C 2522.084 359.465 2523.484 345.165 2523.984 330.765 C 2524.384 320.665 2523.784 310.665 2521.784 300.665 C 2517.384 278.165 2507.684 258.265 2492.084 241.465 Z M 2413.484 371.865 C 2405.884 380.565 2396.184 385.265 2384.784 386.465 C 2380.484 386.865 2376.184 387.365 2371.984 387.865 C 2370.984 387.965 2370.084 388.065 2369.084 388.065 C 2368.184 388.065 2367.584 387.465 2367.484 386.565 C 2367.384 385.165 2367.284 383.665 2367.284 382.265 C 2367.284 370.465 2367.284 358.665 2367.284 346.765 C 2367.284 334.665 2367.284 322.465 2367.284 310.365 C 2367.284 309.565 2367.284 308.765 2367.284 307.965 C 2367.284 306.365 2367.884 305.265 2369.484 304.665 C 2371.584 303.965 2373.584 303.065 2375.784 302.365 C 2382.384 300.365 2388.984 298.865 2395.984 298.965 C 2399.084 299.065 2402.084 299.465 2404.984 300.365 C 2411.384 302.165 2416.384 305.965 2420.084 311.465 C 2423.784 316.865 2425.784 322.865 2426.584 329.265 C 2428.484 345.365 2424.184 359.665 2413.484 371.865 Z M 1901.681 392.766 C 1916.181 390.566 1927.984 389.365 1942.584 387.365 C 1947.184 386.765 1947.384 386.665 1947.384 382.065 C 1947.384 358.065 1947.384 334.065 1947.384 310.065 C 1947.384 308.765 1947.284 307.465 1947.084 306.265 C 1946.984 305.365 1946.284 304.865 1945.384 304.965 C 1944.584 304.965 1943.784 305.165 1942.984 305.265 C 1937.584 306.065 1932.284 306.965 1926.884 307.765 C 1917.384 309.265 1907.984 310.765 1898.484 312.165 C 1890.084 313.365 1881.684 314.465 1873.284 315.565 C 1866.684 316.465 1859.984 317.265 1853.484 318.865 C 1831.984 324.165 1813.784 335.165 1798.484 351.065 C 1791.184 358.665 1784.784 367.165 1779.084 376.065 C 1761.884 402.765 1752.884 431.965 1751.784 463.765 C 1751.184 481.565 1753.084 499.165 1756.584 516.665 C 1760.884 538.465 1770.884 556.865 1787.184 571.865 C 1801.084 584.665 1817.184 593.365 1835.884 597.165 C 1843.884 598.765 1851.984 599.665 1860.184 599.665 C 1872.984 599.665 1885.784 599.665 1898.584 599.665 L 1898.584 599.565 C 1912.484 599.565 1926.384 599.565 1940.284 599.565 C 1941.384 599.565 1942.484 599.565 1943.684 599.565 C 1946.484 599.465 1947.084 598.965 1947.184 596.265 C 1947.284 594.165 1947.184 592.065 1947.184 590.065 C 1947.184 568.265 1947.184 546.565 1947.184 524.765 C 1947.184 519.365 1947.084 519.365 1941.984 519.265 C 1941.184 519.265 1940.384 519.265 1939.584 519.265 C 1926.284 519.365 1913.084 519.365 1899.784 519.465 C 1893.184 519.465 1886.684 519.565 1880.084 519.565 C 1875.284 519.565 1870.484 519.265 1865.884 517.765 C 1856.384 514.665 1849.684 508.365 1845.184 499.665 C 1840.484 490.565 1837.984 480.865 1837.484 470.765 C 1836.984 461.565 1838.484 452.665 1841.284 443.865 C 1847.884 422.065 1870.381 397.366 1901.681 392.766 Z" style="fill: rgb(219, 37, 13);" transform="matrix(1, 0, 0, 1, 597.427222, 141.972913)"/>
    </g>
  </g>
  <path d="M -407.385 784.736 C -407.385 787.436 -407.402 788.997 -408.153 789.822 C -408.91 790.653 -410.415 790.735 -412.965 790.835 C -435.677 791.735 -458.387 791.535 -481.085 791.535 C -481.685 791.535 -482.356 791.534 -482.956 791.534 C -484.826 791.58 -486.063 790.646 -486.924 789.174 C -487.515 788.089 -488.215 786.99 -488.823 785.875 C -513.224 741.575 -537.624 697.174 -562.024 652.774 C -563.218 650.585 -564.511 648.397 -565.809 646.2 C -565.822 646.198 -565.842 646.193 -565.868 646.184 C -565.976 646.148 -565.998 646.147 -566.063 646.14 C -566.136 646.174 -566.127 646.181 -566.226 646.269 C -566.32 646.354 -566.275 646.307 -566.29 646.31 C -566.386 647.275 -566.385 648.133 -566.385 649.132 C -566.285 657.532 -566.185 666.028 -566.085 674.528 C -565.485 711.029 -564.985 747.435 -564.485 783.935 C -564.486 787.212 -564.344 789.046 -565.226 789.958 C -566.104 790.866 -567.995 790.835 -571.587 790.835 C -595.586 790.735 -619.584 790.735 -643.585 790.635 C -644.385 790.635 -645.215 790.633 -646.045 790.531 C -646.992 790.421 -647.783 790.17 -648.276 789.676 C -648.77 789.183 -649.023 788.373 -649.084 787.36 C -649.185 785.347 -649.185 783.235 -649.185 781.135 C -649.185 729.135 -649.185 677.135 -649.185 625.135 C -649.185 573.135 -649.185 521.135 -649.185 469.135 C -649.185 467.135 -649.185 465.248 -649.085 463.335 C -649.066 462.69 -648.821 462.053 -648.408 461.703 C -648.001 461.359 -647.331 461.194 -646.647 461.236 C -645.345 461.337 -644.114 461.441 -642.797 461.643 C -629.395 464.043 -616.097 466.543 -602.701 468.842 C -591.408 470.741 -580.011 472.341 -568.609 474.041 C -566.014 474.44 -564.57 474.634 -563.477 475.385 C -562.386 476.135 -561.646 477.446 -560.343 479.901 C -549.346 500.697 -537.948 521.192 -526.449 541.691 C -515.65 560.989 -504.754 580.082 -493.855 599.279 C -492.852 600.885 -491.834 602.617 -490.838 604.211 C -490.733 604.509 -490.456 604.635 -490.185 604.635 C -490.068 604.635 -490.083 604.64 -490.001 604.527 C -489.913 604.407 -489.885 604.313 -489.885 604.135 C -489.885 602.335 -489.885 600.639 -489.885 598.841 C -490.185 587.043 -490.485 575.148 -490.785 563.348 C -491.385 539.848 -491.984 516.37 -492.584 492.88 C -492.682 492.248 -492.685 491.539 -492.685 490.94 C -492.735 488.44 -492.729 486.924 -491.94 486.274 C -491.159 485.631 -489.609 485.841 -487.009 486.241 C -471.508 488.641 -456.103 491.042 -440.604 493.442 C -431.502 494.942 -422.301 496.542 -413.203 498.042 C -412.644 498.138 -411.923 498.142 -411.244 498.355 C -410.345 498.625 -409.608 499.02 -409.148 499.58 C -408.688 500.141 -408.446 500.95 -408.386 501.91 C -408.285 503.923 -408.285 506.034 -408.285 508.133 C -407.985 554.633 -407.685 601.232 -407.485 647.733 C -407.285 693.434 -407.285 739.235 -407.385 784.736 Z M -408.485 647.737 C -408.685 601.238 -408.985 554.638 -409.285 508.138 C -409.285 506.038 -409.285 503.947 -409.384 501.96 C -409.424 501.12 -409.582 500.629 -409.922 500.215 C -410.262 499.8 -410.725 499.545 -411.526 499.315 C -412.047 499.128 -412.726 499.132 -413.367 499.028 C -422.469 497.528 -431.666 495.928 -440.764 494.429 C -456.263 492.029 -471.662 489.629 -487.161 487.229 C -489.761 486.829 -490.811 486.639 -491.305 487.046 C -491.791 487.446 -491.735 488.425 -491.685 490.925 C -491.685 491.525 -491.688 492.194 -491.592 492.753 L -491.586 492.786 C -490.986 516.286 -490.385 539.822 -489.785 563.322 C -489.485 575.122 -489.185 587.022 -488.885 598.822 C -488.885 600.622 -488.885 602.335 -488.885 604.135 C -488.885 604.457 -489.007 604.863 -489.194 605.118 C -489.387 605.38 -489.803 605.635 -490.185 605.635 C -490.714 605.635 -491.437 605.161 -491.732 604.659 C -492.736 603.053 -493.712 601.394 -494.709 599.8 C -505.609 580.6 -516.52 561.481 -527.321 542.179 C -538.822 521.678 -550.224 501.174 -561.227 480.369 C -562.524 477.925 -563.134 476.835 -564.043 476.21 C -564.95 475.586 -566.155 475.43 -568.76 475.029 C -580.157 473.33 -591.561 471.729 -602.868 469.828 C -616.272 467.527 -629.571 465.028 -642.967 462.628 C -644.248 462.431 -645.425 462.333 -646.723 462.234 C -647.239 462.176 -647.519 462.261 -647.762 462.467 C -647.999 462.667 -648.104 462.88 -648.085 463.335 C -648.185 465.222 -648.185 467.135 -648.185 469.135 C -648.185 521.135 -648.185 573.135 -648.185 625.135 C -648.185 677.135 -648.185 729.135 -648.185 781.135 C -648.185 783.235 -648.185 785.323 -648.086 787.31 C -648.047 788.197 -647.901 788.637 -647.569 788.969 C -647.237 789.3 -646.781 789.448 -645.93 789.538 C -645.161 789.636 -644.385 789.635 -643.585 789.635 C -619.586 789.735 -595.585 789.735 -571.584 789.835 C -567.977 789.835 -566.566 789.904 -565.944 789.262 C -565.326 788.624 -565.484 787.262 -565.485 783.939 C -565.985 747.44 -566.485 711.043 -567.085 674.543 C -567.185 666.043 -567.285 657.541 -567.385 649.141 C -567.385 648.141 -567.384 647.21 -567.283 646.185 C -567.228 645.929 -567.05 645.666 -566.895 645.526 C -566.743 645.389 -566.536 645.253 -566.409 645.188 L -566.303 645.133 L -566.185 645.135 C -566 645.138 -565.744 645.172 -565.552 645.236 C -565.35 645.303 -565.083 645.509 -564.938 645.711 C -563.638 647.911 -562.351 650.087 -561.146 652.295 C -536.747 696.695 -512.347 741.094 -487.947 785.394 C -487.356 786.479 -486.655 787.581 -486.046 788.696 C -485.307 790.024 -484.544 790.69 -483.014 790.536 C -482.414 790.536 -481.685 790.535 -481.085 790.535 C -458.383 790.535 -435.693 790.735 -413.005 789.835 C -410.455 789.735 -409.41 789.717 -408.892 789.148 C -408.368 788.573 -408.385 787.435 -408.385 784.735 C -408.285 739.236 -408.285 693.436 -408.485 647.737 Z M -201.187 726.493 C -201.086 727.714 -201.085 729.035 -201.085 730.335 C -201.085 749.135 -201.085 767.835 -201.085 786.535 C -201.085 788.151 -201.187 789.78 -201.287 791.38 C -201.36 792.014 -201.627 792.614 -202.021 792.977 C -202.413 793.339 -203.026 793.567 -203.643 793.633 C -204.864 793.734 -205.985 793.735 -207.085 793.735 C -257.185 793.735 -307.185 793.735 -357.285 793.735 C -359.645 793.735 -361.087 793.66 -361.857 792.92 C -362.628 792.178 -362.735 790.745 -362.785 788.435 C -362.785 786.835 -362.785 785.235 -362.785 783.635 C -362.785 738.635 -362.785 693.735 -362.785 648.735 C -362.785 602.535 -362.785 556.235 -362.785 510.035 C -362.785 507.566 -362.647 506.003 -361.818 505.262 C -360.986 504.519 -359.439 504.587 -357.018 504.94 C -344.516 506.64 -332.014 508.44 -319.514 510.24 C -307.018 512.04 -294.517 513.64 -282.013 515.44 C -264.813 517.94 -247.515 520.44 -230.316 522.84 C -223.117 523.84 -215.809 524.841 -208.509 525.841 C -207.18 526.047 -206.278 526.301 -205.762 526.877 C -205.248 527.451 -205.088 528.413 -204.985 529.735 C -204.985 530.535 -204.985 531.335 -204.985 532.135 C -204.985 550.935 -204.985 569.635 -204.985 588.335 C -204.985 590.75 -205.098 592.248 -205.923 592.953 C -206.742 593.653 -208.274 593.583 -210.735 593.333 C -226.032 591.833 -241.33 590.533 -256.632 589.133 C -263.036 588.532 -269.331 587.833 -275.722 587.334 C -278.612 587.134 -279.675 587.065 -280.146 587.565 C -280.617 588.066 -280.485 589.162 -280.485 591.735 C -280.485 600.135 -280.485 608.435 -280.485 616.735 C -280.485 617.935 -280.485 619.033 -280.386 620.11 C -280.336 621.1 -280.309 621.477 -280.122 621.707 C -279.942 621.928 -279.637 621.995 -278.712 622.14 C -274.315 622.74 -269.821 623.339 -265.426 623.838 C -257.83 624.738 -250.132 625.538 -242.529 626.438 C -238.73 626.838 -234.93 627.238 -231.125 627.739 C -229.691 627.895 -228.7 628.15 -228.155 628.785 C -227.615 629.415 -227.485 630.456 -227.485 631.935 C -227.485 635.335 -227.485 638.635 -227.485 642.035 C -227.485 654.435 -227.485 666.935 -227.485 679.435 C -227.485 683.511 -227.324 685.591 -228.332 686.527 C -229.335 687.456 -231.464 687.235 -235.585 687.235 C -249.585 687.235 -263.485 687.235 -277.385 687.235 C -278.385 687.235 -279.279 687.235 -280.275 687.235 C -281.382 687.281 -281.847 687.36 -282.133 687.665 C -282.422 687.973 -282.485 688.47 -282.485 689.635 C -282.485 699.835 -282.485 710.135 -282.485 720.335 C -282.485 721.338 -282.404 721.79 -282.12 722.093 C -281.839 722.393 -281.404 722.493 -280.449 722.536 C -279.067 722.636 -277.585 722.635 -276.185 722.635 C -253.185 722.635 -230.085 722.635 -207.085 722.635 C -206.485 722.635 -205.768 722.635 -205.168 722.635 C -203.688 722.688 -202.686 722.852 -202.106 723.431 C -201.531 724.007 -201.339 725.024 -201.187 726.493 Z M -202.814 724.139 C -203.184 723.768 -203.78 723.682 -205.193 723.635 C -205.791 723.635 -206.485 723.635 -207.085 723.635 C -230.085 723.635 -253.185 723.635 -276.185 723.635 C -277.585 723.635 -279.099 723.635 -280.517 723.534 C -281.559 723.477 -282.381 723.277 -282.85 722.777 C -283.316 722.28 -283.485 721.432 -283.485 720.335 C -283.485 710.135 -283.485 699.835 -283.485 689.635 C -283.485 688.4 -283.348 687.497 -282.862 686.98 C -282.373 686.46 -281.491 686.289 -280.307 686.235 C -279.307 686.235 -278.385 686.235 -277.385 686.235 C -263.485 686.235 -249.585 686.235 -235.585 686.235 C -231.406 686.235 -229.735 686.464 -229.013 685.793 C -228.296 685.129 -228.485 683.559 -228.485 679.435 C -228.485 666.935 -228.485 654.435 -228.485 642.035 C -228.485 638.635 -228.485 635.335 -228.485 631.935 C -228.485 630.514 -228.555 629.855 -228.915 629.435 C -229.27 629.02 -229.872 628.876 -231.238 628.732 C -235.032 628.233 -238.837 627.832 -242.637 627.432 C -250.234 626.533 -257.939 625.732 -265.543 624.832 C -269.947 624.331 -274.452 623.731 -278.853 623.13 C -279.824 622.976 -280.528 622.792 -280.898 622.338 C -281.261 621.893 -281.333 621.18 -281.384 620.17 C -281.484 619.051 -281.485 617.935 -281.485 616.735 C -281.485 608.435 -281.485 600.135 -281.485 591.735 C -281.485 589.208 -281.603 587.654 -280.874 586.88 C -280.145 586.105 -278.558 586.136 -275.651 586.336 C -269.242 586.837 -262.934 587.538 -256.539 588.137 C -241.241 589.537 -225.939 590.837 -210.636 592.337 C -208.197 592.587 -207.128 592.667 -206.572 592.192 C -206.022 591.722 -205.985 590.72 -205.985 588.335 C -205.985 569.635 -205.985 550.935 -205.985 532.135 C -205.985 531.335 -205.985 530.554 -205.985 529.754 C -206.082 528.489 -206.172 527.919 -206.508 527.543 C -206.842 527.169 -207.388 527.023 -208.657 526.83 C -215.955 525.83 -223.253 524.83 -230.454 523.83 C -247.655 521.43 -264.956 518.93 -282.157 516.43 C -294.653 514.63 -307.152 513.03 -319.656 511.23 C -332.156 509.43 -344.654 507.63 -357.152 505.93 C -359.531 505.583 -360.584 505.501 -361.152 506.008 C -361.723 506.517 -361.785 507.604 -361.785 510.035 C -361.785 556.235 -361.785 602.535 -361.785 648.735 C -361.785 693.735 -361.785 738.635 -361.785 783.635 C -361.785 785.235 -361.785 786.831 -361.785 788.43 C -361.735 790.716 -361.692 791.692 -361.163 792.2 C -360.633 792.71 -359.625 792.735 -357.285 792.735 C -307.185 792.735 -257.185 792.735 -207.085 792.735 C -205.985 792.735 -204.906 792.736 -203.727 792.637 C -203.244 792.603 -202.957 792.481 -202.699 792.243 C -202.443 792.006 -202.31 791.756 -202.283 791.29 C -202.183 789.69 -202.085 788.119 -202.085 786.535 C -202.085 767.835 -202.085 749.135 -202.085 730.335 C -202.085 729.035 -202.084 727.761 -202.183 726.582 C -202.33 725.154 -202.439 724.513 -202.814 724.139 Z M 93.814 544.299 C 93.914 545.734 93.814 547.268 93.815 548.651 C 92.915 576.645 92.715 604.637 92.715 632.635 C 92.715 684.135 92.715 735.638 93.415 787.135 C 93.415 787.535 93.415 788.048 93.415 788.548 C 93.364 790.509 93.26 791.769 92.572 792.472 C 91.887 793.172 90.607 793.333 88.541 793.434 C 84.927 793.635 81.416 793.635 77.916 793.635 C 60.516 793.735 43.015 793.835 25.615 793.935 C 23.515 793.935 22.224 793.917 21.536 793.276 C 20.846 792.632 20.765 791.351 20.715 789.245 C 20.515 779.345 20.315 769.44 20.315 759.535 C 20.315 735.834 20.415 712.234 20.415 688.535 C 20.415 686.696 20.671 685.231 20.288 683.615 C 19.665 683.769 19.996 683.878 19.855 684.333 C 19.715 684.787 19.706 685.354 19.6 685.858 C 16.5 698.058 13.4 710.255 10.501 722.551 C 5.202 744.75 0.001 767.051 -5.199 789.251 C -5.749 791.551 -6.077 792.878 -6.908 793.549 C -7.743 794.223 -9.085 794.235 -11.385 794.235 C -27.785 794.235 -44.285 794.235 -60.785 794.235 C -61.185 794.235 -61.501 794.235 -61.801 794.235 C -63.365 794.184 -64.389 794.087 -65.06 793.55 C -65.728 793.016 -66.065 792.023 -66.47 790.456 C -68.669 781.659 -70.97 772.856 -73.071 763.951 C -79.272 738.15 -85.37 712.355 -91.57 686.556 C -91.955 684.973 -91.834 683.285 -92.938 682.173 C -92.947 682.217 -92.957 682.269 -92.969 682.33 C -93.113 683.071 -93.185 684.448 -93.185 686.735 C -93.185 720.035 -93.185 753.235 -93.185 786.535 C -93.185 790.317 -93.074 792.308 -94.022 793.241 C -94.97 794.175 -96.956 794.035 -100.685 794.035 C -120.486 794.035 -140.386 793.935 -160.185 793.935 C -162.926 793.935 -164.531 793.969 -165.348 793.167 C -166.163 792.367 -166.185 790.735 -166.185 787.835 C -166.185 702.335 -166.185 616.935 -166.185 531.535 C -166.185 528.431 -166.13 526.633 -165.217 525.823 C -164.303 525.012 -162.528 525.188 -159.528 525.538 C -155.039 526.037 -150.647 526.337 -146.142 526.737 C -133.044 527.837 -120.045 528.837 -106.943 529.937 C -94.945 530.937 -83.049 531.836 -71.047 532.836 C -69.745 532.937 -68.527 533.039 -67.21 533.241 C -65.549 533.493 -64.511 533.706 -63.852 534.336 C -63.197 534.962 -62.899 536.017 -62.497 537.727 C -57.997 558.025 -53.397 578.227 -48.996 598.529 C -44.796 617.929 -40.593 637.244 -36.493 656.646 C -36.293 657.746 -36.207 658.349 -35.505 659.36 C -34.812 656.888 -34.265 655.094 -33.668 652.804 C -23.767 616.303 -13.664 579.791 -2.261 543.682 C -1.369 540.914 -1.074 539.368 -0.143 538.641 C 0.792 537.91 2.354 538.037 5.446 538.236 C 26.84 539.536 48.233 540.335 69.632 541.035 C 75.623 541.235 81.756 541.237 87.86 541.337 C 88.938 541.436 90.034 541.436 91.157 541.537 C 91.838 541.608 92.51 541.896 92.949 542.35 C 93.383 542.798 93.694 543.531 93.814 544.299 Z M 92.231 543.045 C 91.92 542.724 91.592 542.562 91.073 542.533 C 89.996 542.434 88.905 542.434 87.789 542.335 C 81.699 542.235 75.607 542.235 69.598 542.035 C 48.197 541.335 26.791 540.534 5.385 539.234 C 2.278 539.034 1.138 538.91 0.473 539.429 C -0.196 539.952 -0.401 541.155 -1.309 543.987 C -12.706 580.078 -22.802 616.565 -32.702 653.064 C -33.304 655.372 -34.005 657.674 -34.803 660.568 L -35.056 661.486 L -35.663 660.762 C -37.02 659.143 -37.276 657.93 -37.476 656.831 C -41.575 637.435 -45.774 618.141 -49.974 598.741 C -54.373 578.443 -58.972 558.247 -63.472 537.946 C -63.869 536.258 -64.073 535.508 -64.543 535.059 C -65.009 534.614 -65.721 534.477 -67.36 534.229 C -68.643 534.031 -69.825 533.933 -71.123 533.834 C -83.121 532.834 -95.025 531.933 -107.027 530.933 C -120.125 529.833 -133.125 528.833 -146.227 527.733 C -150.722 527.334 -155.13 527.033 -159.64 526.532 C -162.64 526.182 -163.917 526.008 -164.553 526.572 C -165.19 527.137 -165.185 528.439 -165.185 531.535 C -165.185 616.935 -165.185 702.335 -165.185 787.835 C -165.185 790.735 -165.207 791.903 -164.647 792.453 C -164.089 793.001 -162.944 792.935 -160.185 792.935 C -140.384 792.935 -120.484 793.035 -100.685 793.035 C -96.914 793.035 -95.4 793.195 -94.723 792.529 C -94.046 791.862 -94.185 790.353 -94.185 786.535 C -94.185 753.235 -94.185 720.035 -94.185 686.735 C -94.185 684.422 -94.107 682.949 -93.951 682.14 C -93.866 681.703 -93.698 681.308 -93.492 681.143 C -93.345 681.024 -93.034 680.963 -92.861 681.012 C -92.717 681.052 -92.55 681.172 -92.44 681.274 C -90.965 682.77 -90.993 684.788 -90.6 686.314 C -84.4 712.115 -78.299 737.919 -72.099 763.718 C -70 772.612 -67.701 781.41 -65.5 790.212 C -65.106 791.744 -64.892 792.404 -64.435 792.77 C -63.981 793.133 -63.307 793.186 -61.777 793.235 C -61.48 793.235 -61.185 793.235 -60.785 793.235 C -44.285 793.235 -27.785 793.235 -11.385 793.235 C -9.085 793.235 -8.127 793.247 -7.537 792.771 C -6.943 792.292 -6.722 791.32 -6.172 789.02 C -0.972 766.82 4.228 744.521 9.529 722.32 C 12.429 710.016 15.53 697.814 18.63 685.615 C 18.721 685.219 18.716 684.633 18.9 684.037 C 19.084 683.442 19.58 682.807 20.457 682.461 L 20.937 682.271 L 21.092 682.784 C 21.7 684.799 21.415 686.774 21.415 688.535 C 21.415 712.236 21.315 735.836 21.315 759.535 C 21.315 769.43 21.515 779.324 21.715 789.224 C 21.765 791.317 21.784 792.139 22.219 792.544 C 22.656 792.953 23.514 792.935 25.614 792.935 C 43.013 792.835 60.512 792.735 77.912 792.635 C 81.412 792.635 84.901 792.635 88.487 792.436 C 90.521 792.337 91.393 792.248 91.858 791.773 C 92.32 791.301 92.366 790.463 92.415 788.529 C 92.415 788.031 92.415 787.538 92.415 787.138 C 91.715 735.636 91.715 684.135 91.715 632.635 C 91.715 604.633 91.915 576.633 92.815 548.627 C 92.816 547.213 92.916 545.746 92.817 544.384 C 92.736 543.765 92.547 543.372 92.231 543.045 Z M -689.385 782.435 C -689.385 784.235 -689.385 785.947 -689.486 787.76 C -689.541 788.998 -689.73 789.903 -690.229 790.448 C -690.733 790.998 -691.603 791.226 -692.743 791.333 C -693.964 791.434 -695.085 791.435 -696.185 791.435 C -726.085 791.435 -755.985 791.435 -785.885 791.435 C -788.495 791.435 -791.011 791.334 -793.621 791.134 C -794.385 791.07 -795.062 790.84 -795.476 790.426 C -795.89 790.012 -796.121 789.328 -796.184 788.563 C -796.285 786.749 -796.285 785.035 -796.285 783.235 C -796.285 725.035 -796.285 666.735 -796.285 608.535 C -796.285 550.635 -796.285 492.735 -796.285 434.835 C -796.285 432.624 -796.185 430.335 -796.085 428.135 C -796.059 427.523 -795.794 426.943 -795.408 426.675 C -795.025 426.408 -794.41 426.343 -793.875 426.447 C -789.877 427.347 -785.771 428.248 -781.765 429.25 C -753.264 436.25 -724.77 443.348 -696.273 450.348 C -694.857 450.652 -693.448 451.054 -692.048 451.454 C -691.282 451.673 -690.616 452.086 -690.211 452.621 C -689.808 453.154 -689.585 453.915 -689.585 454.735 C -689.585 455.935 -689.585 457.235 -689.585 458.535 C -689.585 566.535 -689.585 674.535 -689.385 782.435 Z M -690.585 458.535 C -690.585 457.235 -690.585 455.935 -690.585 454.735 C -690.585 454.055 -690.712 453.616 -691.009 453.224 C -691.304 452.834 -691.688 452.597 -692.322 452.416 C -693.722 452.016 -695.106 451.62 -696.49 451.324 C -724.991 444.324 -753.505 437.22 -782.004 430.221 C -785.997 429.222 -790.093 428.323 -794.095 427.423 C -794.46 427.327 -794.645 427.362 -794.837 427.495 C -795.026 427.627 -795.111 427.747 -795.085 428.135 C -795.185 430.335 -795.285 432.646 -795.285 434.835 C -795.285 492.735 -795.285 550.635 -795.285 608.535 C -795.285 666.735 -795.285 725.035 -795.285 783.235 C -795.285 785.035 -795.285 786.721 -795.186 788.507 C -795.149 789.142 -795.03 789.458 -794.769 789.719 C -794.508 789.98 -794.185 790.1 -793.549 790.136 C -790.959 790.336 -788.475 790.435 -785.885 790.435 C -755.985 790.435 -726.085 790.435 -696.185 790.435 C -695.085 790.435 -694.006 790.436 -692.827 790.337 C -691.769 790.244 -691.287 790.122 -690.966 789.772 C -690.64 789.417 -690.53 788.874 -690.485 787.714 C -690.385 785.928 -690.385 784.235 -690.385 782.435 C -690.585 674.535 -690.585 566.535 -690.585 458.535 Z M -833.685 464.036 C -833.685 464.836 -833.685 465.657 -833.685 466.457 C -833.742 467.655 -833.975 468.599 -834.54 469.069 C -835.108 469.542 -836.082 469.578 -837.294 469.323 C -844.89 467.624 -852.593 466.023 -860.199 464.222 C -884.201 458.621 -908.101 452.921 -932.001 447.221 C -946.304 443.821 -960.497 440.222 -974.886 437.225 C -980.785 436.025 -986.737 434.83 -992.788 434.835 C -1007.599 434.719 -1020.527 439.552 -1031.243 449.7 C -1050.597 467.841 -1063.223 489.91 -1068.695 516.037 C -1071.79 531.096 -1072.386 546.322 -1070.887 561.688 C -1069.789 573.275 -1068.097 584.732 -1065.003 596.002 C -1056.249 627.612 -1037.366 651.061 -1008.937 667.201 C -998.994 672.877 -988.278 675.847 -977.004 677.742 C -964.636 679.738 -952.271 680.135 -939.773 680.435 C -908.181 681.135 -876.694 680.935 -845.198 680.635 C -842.79 680.535 -840.379 680.535 -837.971 680.635 C -837.058 680.643 -836.305 680.838 -835.831 681.282 C -835.358 681.724 -835.099 682.491 -834.987 683.393 C -834.886 684.614 -834.885 685.935 -834.885 687.235 C -834.885 719.836 -834.985 752.536 -834.985 785.135 C -834.985 787.921 -834.923 789.525 -835.7 790.332 C -836.477 791.139 -838.09 791.135 -840.985 791.135 C -866.781 791.135 -892.584 791.535 -929.39 790.735 C -941.691 790.735 -964.986 790.835 -988.389 790.735 C -1016.046 790.528 -1042.254 784.103 -1067.104 771.985 C -1086.243 762.661 -1103.208 750.115 -1118.533 735.294 C -1138.156 716.268 -1154.706 695 -1166.833 670.457 C -1176.548 650.82 -1182.97 630.054 -1186.777 608.524 C -1191.481 582.485 -1192.085 556.33 -1190.885 530.013 C -1190.384 518.799 -1189.281 507.674 -1187.68 496.563 C -1181.966 457.611 -1168.52 421.698 -1144.686 389.936 C -1134.377 376.125 -1123.242 362.887 -1110.218 351.262 C -1098.293 340.642 -1085.225 331.699 -1070.584 325.277 C -1052.831 317.56 -1034.228 314.039 -1014.875 314.535 C -1000.041 314.838 -985.494 317.143 -971.083 320.146 C -941.459 326.352 -912.632 335.359 -884.028 344.96 C -871.124 349.162 -858.325 353.561 -845.427 357.861 C -842.105 358.968 -838.853 360.393 -835.733 362.103 C -834.454 362.876 -833.585 364.092 -833.585 365.635 C -833.585 366.835 -833.585 368.135 -833.585 369.435 C -833.585 400.935 -833.585 432.535 -833.685 464.036 Z M -834.585 369.435 C -834.585 368.135 -834.585 366.835 -834.585 365.635 C -834.585 364.378 -835.116 363.594 -836.237 362.967 C -839.317 361.277 -842.465 359.902 -845.743 358.809 C -858.645 354.509 -871.444 350.109 -884.34 345.91 C -912.935 336.312 -941.711 327.318 -971.287 321.124 C -985.675 318.127 -1000.129 315.832 -1014.895 315.535 C -1034.142 315.031 -1052.538 318.51 -1070.185 326.193 C -1084.744 332.57 -1097.677 341.428 -1109.552 352.008 C -1122.527 363.583 -1133.593 376.745 -1143.884 390.534 C -1167.65 422.172 -1181.003 457.858 -1186.69 496.707 C -1188.289 507.796 -1189.386 518.871 -1189.885 530.057 C -1191.085 556.34 -1190.489 582.385 -1185.793 608.346 C -1182 629.816 -1175.622 650.45 -1165.937 670.013 C -1153.864 694.47 -1137.414 715.602 -1117.837 734.576 C -1102.562 749.354 -1085.727 761.809 -1066.666 771.085 C -1041.916 783.167 -1015.924 789.542 -988.382 789.735 C -964.985 789.835 -941.686 789.735 -929.385 789.735 C -892.594 790.535 -866.789 790.135 -840.985 790.135 C -838.08 790.135 -836.943 790.181 -836.42 789.638 C -835.897 789.095 -835.985 787.949 -835.985 785.135 C -835.985 752.534 -835.885 719.834 -835.885 687.235 C -835.885 685.935 -835.884 684.66 -835.983 683.483 C -836.071 682.693 -836.212 682.296 -836.514 682.013 C -836.815 681.732 -837.198 681.627 -837.985 681.635 C -840.375 681.535 -842.775 681.535 -845.164 681.635 C -876.665 681.935 -908.189 682.135 -939.796 681.435 C -952.298 681.135 -964.733 680.732 -977.165 678.729 C -988.49 676.823 -999.376 673.793 -1009.433 668.069 C -1038.003 651.809 -1057.121 628.059 -1065.967 596.269 C -1069.073 584.939 -1070.781 573.395 -1071.883 561.782 C -1073.384 546.348 -1072.78 530.975 -1069.675 515.834 C -1064.147 489.562 -1051.373 467.229 -1031.927 448.971 C -1021.043 438.719 -1007.771 433.751 -992.782 433.835 C -986.633 433.84 -980.586 435.045 -974.685 436.245 C -960.275 439.247 -946.066 442.849 -931.769 446.249 C -907.869 451.949 -883.97 457.648 -859.971 463.248 C -852.378 465.047 -844.68 466.646 -837.076 468.347 C -835.988 468.591 -835.512 468.578 -835.18 468.301 C -834.845 468.021 -834.728 467.519 -834.685 466.425 C -834.685 465.628 -834.685 464.835 -834.685 464.035 C -834.585 432.536 -834.585 400.935 -834.585 369.435 Z M 360.191 789.482 C 360.746 791.009 360.955 792.132 360.537 792.79 C 360.114 793.458 359.001 793.681 357.515 793.735 C 356.115 793.735 354.615 793.735 353.215 793.735 C 342.415 793.735 331.515 793.735 320.615 793.735 C 309.215 793.735 297.915 793.735 286.515 793.735 C 285.515 793.735 284.619 793.735 283.622 793.735 C 282.595 793.771 281.679 793.51 281.032 793.004 C 280.385 792.498 279.917 791.695 279.641 790.796 C 279.335 789.977 279.136 789.279 278.842 788.498 C 276.043 780.4 273.144 772.203 270.245 764.105 C 269.848 763.013 269.444 761.998 269.135 760.874 C 268.861 759.987 268.495 759.409 267.934 759.002 C 267.373 758.596 266.735 758.428 265.774 758.532 C 264.913 758.631 264.084 758.535 263.315 758.535 C 241.315 758.535 219.215 758.535 197.115 758.535 C 194.626 758.535 193.511 758.346 192.762 758.8 C 192.004 759.259 191.587 760.349 190.694 763.279 C 188.292 771.385 185.694 779.379 183.096 787.473 C 182.784 788.703 182.279 789.92 181.886 791.103 C 181.604 791.864 181.15 792.516 180.601 792.924 C 180.051 793.333 179.319 793.569 178.562 793.633 C 177.537 793.734 176.615 793.735 175.615 793.735 C 154.615 793.735 133.715 793.735 112.715 793.735 C 111.085 793.735 109.848 793.709 108.964 793.578 C 108.043 793.441 107.319 793.106 107.008 792.575 C 106.434 791.593 107.098 789.807 108.146 786.963 C 109.023 784.565 109.896 782.167 110.768 779.768 C 130.193 726.339 148.563 672.554 166.842 618.673 C 174.542 596.172 182.349 573.653 189.547 550.959 C 189.838 550.187 190.042 549.379 190.354 548.643 C 190.678 547.847 191.152 547.131 191.76 546.692 C 192.371 546.251 193.235 546.045 194.177 546.139 C 194.915 546.239 195.682 546.137 196.513 546.135 C 217.714 546.035 239.015 546.035 260.315 546.035 C 262.911 546.035 264.317 545.743 265.362 546.338 C 266.394 546.926 267.027 548.395 268.279 551.549 C 282.082 585.658 294.584 620.162 307.483 654.56 C 323.782 698.056 340.679 741.349 358.278 784.345 C 358.975 786.04 359.68 787.656 360.191 789.482 Z M 357.353 784.725 C 339.751 741.722 322.848 698.414 306.547 654.91 C 293.646 620.508 281.148 586.014 267.352 551.923 C 266.104 548.778 265.636 547.644 264.868 547.207 C 264.113 546.777 263.019 547.035 260.315 547.035 C 239.015 547.035 217.716 547.035 196.517 547.135 C 195.748 547.133 194.918 547.231 194.056 547.131 C 193.298 547.025 192.809 547.169 192.345 547.503 C 191.878 547.839 191.555 548.317 191.279 549.021 C 190.992 549.683 190.796 550.471 190.488 551.298 C 183.287 574 175.488 596.497 167.788 618.996 C 149.509 672.878 131.137 726.671 111.708 780.11 C 110.836 782.509 109.962 784.908 109.085 787.307 C 108.033 790.162 107.496 791.427 107.872 792.07 C 108.036 792.351 108.325 792.472 109.11 792.589 C 109.932 792.711 111.095 792.735 112.715 792.735 C 133.715 792.735 154.615 792.735 175.615 792.735 C 176.615 792.735 177.49 792.736 178.465 792.637 C 179.104 792.6 179.579 792.437 180.004 792.121 C 180.43 791.804 180.726 791.406 180.944 790.767 C 181.351 789.55 181.842 788.378 182.13 787.214 C 184.73 779.113 187.338 771.087 189.736 762.993 C 190.642 760.025 191.226 758.561 192.243 757.945 C 193.269 757.324 194.704 757.535 197.115 757.535 C 219.215 757.535 241.315 757.535 263.315 757.535 C 264.146 757.535 264.915 757.639 265.653 757.539 C 266.786 757.445 267.807 757.674 268.521 758.193 C 269.235 758.711 269.766 759.578 270.092 760.584 C 270.383 761.657 270.782 762.657 271.185 763.764 C 274.085 771.865 276.985 780.064 279.786 788.166 C 280.091 788.982 280.289 789.679 280.583 790.459 C 280.808 791.253 281.145 791.822 281.648 792.216 C 282.152 792.61 282.724 792.796 283.589 792.736 C 284.589 792.736 285.515 792.735 286.515 792.735 C 297.915 792.735 309.215 792.735 320.615 792.735 C 331.515 792.735 342.415 792.735 353.215 792.735 C 354.615 792.735 356.107 792.735 357.507 792.735 C 358.914 792.689 359.466 792.612 359.693 792.255 C 359.925 791.888 359.785 791.27 359.246 789.807 C 358.757 788.04 358.055 786.43 357.353 784.725 Z M 251.315 712.335 C 244.782 712.335 238.248 712.335 231.715 712.335 L 231.715 712.435 C 225.815 712.435 219.415 712.435 213.515 712.435 C 212.215 712.435 210.886 712.433 209.665 712.333 C 209.059 712.247 208.518 711.939 208.283 711.537 C 208.052 711.14 208.022 710.563 208.123 710.048 C 208.232 709.41 208.446 708.763 208.646 708.163 C 214.745 691.565 220.65 674.852 227.757 658.635 C 228.069 657.91 228.468 657.211 228.868 656.511 C 229.13 656.1 229.653 655.785 230.065 655.785 C 230.477 655.785 231.045 656.077 231.262 656.511 C 231.754 657.494 232.357 658.504 232.775 659.539 C 239.575 675.539 246.362 691.51 253.062 707.511 C 253.271 707.93 253.476 708.448 253.59 708.874 C 254.054 709.97 254.232 710.896 253.881 711.48 C 253.529 712.068 252.578 712.335 251.315 712.335 Z M 253.024 710.965 C 253.198 710.674 253.091 710.236 252.655 709.232 L 252.639 709.195 L 252.63 709.156 C 252.54 708.788 252.359 708.34 252.168 707.959 C 245.468 691.96 238.655 675.931 231.855 659.931 C 231.473 658.966 230.876 657.976 230.368 656.959 C 230.285 656.793 230.253 656.785 230.065 656.785 C 229.877 656.785 229.8 656.77 229.762 656.959 C 229.362 657.659 228.962 658.358 228.675 659.032 C 221.581 675.215 215.688 691.897 209.587 708.5 C 209.388 709.098 209.199 709.655 209.108 710.217 C 209.014 710.597 209.028 710.83 209.147 711.033 C 209.262 711.231 209.371 711.323 209.765 711.337 C 210.944 711.437 212.215 711.435 213.515 711.435 C 219.415 711.435 224.815 711.435 230.715 711.435 L 230.715 711.335 C 237.415 711.335 244.615 711.335 251.315 711.335 C 252.452 711.335 252.851 711.252 253.024 710.965 Z M 1689.315 396.937 C 1689.311 399.29 1689.554 400.659 1688.962 401.591 C 1688.375 402.515 1686.946 402.967 1684.036 403.72 C 1669.137 407.42 1654.336 411.22 1639.434 414.921 C 1621.136 419.42 1602.944 424.018 1584.648 428.617 C 1583.645 428.918 1582.553 429.215 1581.457 429.515 C 1580.229 429.907 1579.678 430.12 1579.355 430.522 C 1579.035 430.922 1578.963 431.476 1578.915 432.744 C 1578.915 433.541 1578.915 434.335 1578.915 435.135 C 1578.915 456.535 1578.915 478.035 1578.915 499.435 C 1578.915 501.835 1578.895 502.988 1579.45 503.563 C 1580.002 504.136 1581.091 504.137 1583.757 503.838 C 1591.862 502.838 1599.963 502.038 1608.059 501.138 C 1615.16 500.338 1622.358 499.538 1629.457 498.738 C 1632.757 498.338 1636.162 497.938 1639.468 497.637 C 1646.664 496.938 1653.762 496.138 1660.966 495.437 C 1663.521 495.187 1665.062 495.092 1665.859 495.798 C 1666.659 496.508 1666.715 498.03 1666.715 500.535 C 1666.715 509.735 1666.715 519.035 1666.715 528.335 C 1666.715 549.335 1666.715 570.235 1666.715 591.235 C 1666.715 595.525 1666.764 597.639 1665.701 598.541 C 1664.644 599.439 1662.526 599.135 1658.615 599.135 C 1633.215 599.135 1607.715 599.135 1582.315 599.135 C 1579.161 599.135 1577.898 599.089 1577.312 599.695 C 1576.726 600.301 1576.815 601.573 1576.815 604.635 C 1576.815 634.235 1576.815 663.835 1576.815 693.435 C 1576.815 694.235 1576.815 695.021 1576.815 695.814 C 1576.909 696.916 1577.01 697.392 1577.333 697.696 C 1577.658 698.002 1578.166 698.089 1579.325 698.135 C 1580.722 698.135 1582.215 698.135 1583.615 698.135 C 1616.415 698.135 1649.215 698.135 1682.015 698.135 C 1682.215 698.135 1682.315 698.135 1682.515 698.135 C 1685.165 698.135 1686.737 698.155 1687.549 698.937 C 1688.364 699.723 1688.415 701.28 1688.415 703.935 C 1688.415 731.535 1688.415 759.235 1688.415 786.935 C 1688.415 789.046 1688.341 790.358 1687.68 791.064 C 1687.014 791.776 1685.727 791.884 1683.715 791.935 C 1682.115 791.935 1680.515 791.935 1678.915 791.935 C 1611.915 791.935 1544.815 791.935 1477.815 791.935 C 1474.179 791.935 1472.224 792.022 1471.28 791.107 C 1470.331 790.187 1470.415 788.27 1470.415 784.735 C 1470.415 782.674 1470.415 780.613 1470.415 778.553 C 1470.415 705.219 1470.415 631.974 1470.415 558.635 C 1470.415 495.835 1470.415 433.135 1470.415 370.435 C 1470.415 370.035 1470.415 369.735 1470.415 369.435 C 1470.415 366.495 1470.373 365.095 1471.017 364.316 C 1471.668 363.529 1472.97 363.397 1475.266 362.658 C 1497.967 355.557 1520.667 348.557 1543.366 341.458 C 1588.866 327.258 1634.478 313.054 1679.978 298.854 C 1682.784 298.053 1685.481 297.353 1688.173 296.556 L 1688.584 296.434 L 1688.762 296.811 C 1689.684 298.769 1689.411 300.479 1689.415 302.033 C 1689.515 333.534 1689.515 365.036 1689.315 396.937 Z M 1688.415 302.037 C 1688.419 300.391 1688.697 299.13 1688.049 297.634 C 1685.478 298.387 1683.05 299.016 1680.258 299.814 C 1634.76 314.014 1589.164 328.212 1543.664 342.412 C 1520.963 349.513 1498.264 356.512 1475.565 363.612 C 1473.163 364.372 1472.212 364.441 1471.788 364.954 C 1471.357 365.475 1471.415 366.475 1471.415 369.435 C 1471.415 369.735 1471.415 370.035 1471.415 370.435 C 1471.415 433.135 1471.415 495.835 1471.415 558.635 C 1471.415 631.974 1471.415 705.219 1471.415 778.553 C 1471.415 780.613 1471.415 782.674 1471.415 784.735 C 1471.415 788.3 1471.299 789.733 1471.976 790.388 C 1472.656 791.048 1474.151 790.935 1477.815 790.935 C 1544.815 790.935 1611.915 790.935 1678.915 790.935 C 1680.515 790.935 1682.109 790.935 1683.709 790.935 C 1685.693 790.886 1686.516 790.844 1686.95 790.381 C 1687.389 789.912 1687.415 789.024 1687.415 786.935 C 1687.415 759.235 1687.415 731.535 1687.415 703.935 C 1687.415 701.29 1687.416 700.197 1686.856 699.658 C 1686.293 699.115 1685.165 699.135 1682.515 699.135 C 1682.315 699.135 1682.215 699.135 1682.015 699.135 C 1649.215 699.135 1616.415 699.135 1583.615 699.135 C 1582.215 699.135 1580.715 699.135 1579.315 699.135 C 1578.081 699.081 1577.172 698.918 1576.647 698.424 C 1576.12 697.928 1575.922 697.061 1575.817 695.878 C 1575.817 695.078 1575.815 694.235 1575.815 693.435 C 1575.815 663.835 1575.815 634.235 1575.815 604.635 C 1575.815 601.597 1575.754 599.869 1576.593 599 C 1577.432 598.131 1579.169 598.135 1582.315 598.135 C 1607.715 598.135 1633.215 598.135 1658.615 598.135 C 1662.604 598.135 1664.286 598.431 1665.054 597.779 C 1665.816 597.131 1665.715 595.545 1665.715 591.235 C 1665.715 570.235 1665.715 549.335 1665.715 528.335 C 1665.715 519.035 1665.715 509.735 1665.715 500.535 C 1665.715 498.04 1665.721 497.012 1665.196 496.547 C 1664.668 496.078 1663.609 496.183 1661.064 496.433 C 1653.868 497.132 1646.767 497.932 1639.563 498.633 C 1636.27 498.932 1632.874 499.331 1629.575 499.731 C 1622.475 500.531 1615.271 501.332 1608.171 502.132 C 1600.068 503.032 1591.97 503.832 1583.876 504.831 C 1581.144 505.133 1579.528 505.084 1578.73 504.257 C 1577.935 503.432 1577.915 501.835 1577.915 499.435 C 1577.915 478.035 1577.915 456.535 1577.915 435.135 C 1577.915 434.335 1577.915 433.535 1577.915 432.735 C 1577.967 431.41 1578.095 430.498 1578.575 429.898 C 1579.052 429.3 1579.897 428.964 1581.163 428.559 C 1582.263 428.259 1583.377 427.954 1584.371 427.656 C 1602.671 423.056 1620.894 418.45 1639.195 413.95 C 1654.093 410.25 1668.891 406.451 1683.792 402.75 C 1686.68 402.004 1687.705 401.705 1688.118 401.054 C 1688.526 400.411 1688.319 399.381 1688.315 396.935 C 1688.515 365.037 1688.515 333.536 1688.415 302.037 Z M 658.975 647.238 C 673.192 680.573 667.456 719.929 644.402 748.051 C 626.039 770.506 602.498 784.893 573.919 790.924 C 562.591 793.328 551.034 794.434 539.506 794.235 C 502.512 793.535 465.614 793.735 428.612 793.635 C 411.814 793.535 395.015 793.535 378.215 793.535 C 377.815 793.535 377.303 793.535 376.803 793.535 C 374.747 793.485 373.456 793.408 372.774 792.726 C 372.092 792.044 372.015 790.747 372.015 788.635 C 372.015 765.435 372.015 742.235 372.015 719.035 C 372.015 716.235 372.015 713.319 372.116 710.41 C 372.172 709.364 372.369 708.549 372.849 708.069 C 373.329 707.589 374.169 707.392 375.215 707.335 C 376.415 707.335 377.514 707.335 378.613 707.335 C 428.013 706.935 477.515 706.635 526.915 706.335 C 534.589 706.336 542.106 705.55 549.346 702.864 C 558.123 699.76 562.465 693.234 564.429 684.518 C 565.028 682.13 564.553 680.012 563.285 677.99 C 559.554 671.666 554.438 667.986 546.851 667.031 C 529.789 664.833 512.712 665.235 495.597 664.535 C 486.106 664.235 476.69 664.234 467.266 663.333 C 454.043 662.029 440.973 659.512 428.527 654.498 C 404.339 644.639 387.797 627.189 379.243 602.699 C 369.929 575.904 371.337 549.221 382.858 523.332 C 388.391 510.878 396.662 500.485 407.303 492.045 C 419.335 482.423 432.429 474.976 447.385 470.752 C 453.7 469.049 460.156 467.74 466.798 467.535 C 496.499 466.435 526.298 465.435 555.998 464.435 L 556.515 464.418 C 556.515 464.425 556.515 464.598 556.515 464.62 C 576.04 464.023 595.47 463.33 615 462.735 C 624.6 462.435 634.206 462.135 643.806 461.835 C 646.506 461.785 648.113 461.778 648.94 462.591 C 649.765 463.401 649.815 465.031 649.815 467.835 C 649.815 493.435 649.815 519.035 649.815 544.635 C 649.815 547.385 649.794 549.01 648.972 549.848 C 648.149 550.685 646.519 550.735 643.715 550.735 C 617.815 550.735 591.915 550.735 566.015 550.735 C 546.324 550.735 526.644 551.434 507.053 552.634 C 504.832 552.834 502.504 552.835 500.315 552.935 C 497.689 552.924 495.193 553.701 492.728 554.887 C 489.411 556.424 487.142 559.081 485.887 562.601 C 484.101 567.718 484.1 572.751 485.985 577.764 C 488.174 583.932 492.874 586.57 499.081 587.339 C 502.064 587.738 505.137 587.936 508.128 588.035 C 513.328 588.135 518.628 588.235 523.928 588.335 C 539.123 588.735 554.324 588.835 569.532 589.435 C 581.359 589.838 593.234 591.552 604.482 595.564 C 630.375 604.721 648.42 622.458 658.975 647.238 Z M 604.149 596.507 C 592.997 592.519 581.271 590.832 569.498 590.435 C 554.306 589.835 539.109 589.735 523.904 589.335 C 518.604 589.235 513.305 589.135 508.105 589.035 C 505.098 588.935 501.966 588.732 498.949 588.331 C 492.558 587.499 487.456 584.538 485.045 578.106 C 483.13 572.919 483.129 567.553 484.943 562.271 C 486.288 558.594 488.819 555.646 492.302 553.983 C 494.837 552.769 497.529 551.946 500.302 551.935 C 502.511 551.835 504.792 551.836 506.97 551.637 C 526.576 550.437 546.306 549.735 566.015 549.735 C 591.915 549.735 617.815 549.735 643.715 549.735 C 646.511 549.735 647.681 549.735 648.258 549.147 C 648.836 548.56 648.815 547.385 648.815 544.635 C 648.815 519.035 648.815 493.435 648.815 467.835 C 648.815 465.039 648.815 463.869 648.24 463.304 C 647.667 462.742 646.525 462.785 643.827 462.835 C 634.229 463.135 624.631 463.435 615.031 463.735 C 595.332 464.335 575.732 465.035 556.03 465.635 L 555.515 465.65 L 555.515 465.452 L 556.032 465.435 C 526.332 466.435 496.533 467.435 466.834 468.535 C 460.276 468.73 453.932 470.021 447.648 471.717 C 432.805 475.894 419.895 483.247 407.927 492.825 C 397.368 501.185 389.239 511.392 383.772 523.738 C 372.293 549.449 370.901 575.766 380.187 602.371 C 388.633 626.681 404.89 643.831 428.903 653.571 C 441.256 658.558 454.186 661.041 467.363 662.337 C 476.739 663.236 486.123 663.235 495.631 663.535 C 512.715 664.235 529.841 663.837 546.979 666.039 C 554.792 667.084 560.274 671.001 564.143 677.477 C 565.473 679.654 566.002 682.14 565.401 684.752 C 563.365 693.636 558.707 700.51 549.684 703.805 C 542.324 706.52 534.641 707.334 526.915 707.335 C 477.515 707.635 428.019 707.935 378.619 708.335 C 377.519 708.335 376.426 708.335 375.226 708.335 C 374.282 708.379 373.851 708.481 373.556 708.776 C 373.261 709.071 373.158 709.5 373.115 710.455 C 373.015 713.345 373.015 716.235 373.015 719.035 C 373.015 742.235 373.015 765.435 373.015 788.635 C 373.015 790.723 373.038 791.575 373.481 792.019 C 373.925 792.462 374.781 792.485 376.821 792.535 C 377.319 792.535 377.815 792.535 378.215 792.535 C 395.015 792.535 411.816 792.535 428.617 792.635 C 465.615 792.735 502.518 792.535 539.524 793.235 C 550.996 793.436 562.439 792.342 573.711 789.946 C 602.132 783.977 625.391 769.763 643.628 747.419 C 666.574 719.541 672.238 680.697 658.055 647.632 C 647.61 623.012 629.857 605.549 604.149 596.506 Z M 1176.806 582.338 C 1179.41 595.576 1180.014 609.056 1180.514 623.859 C 1180.115 632.252 1179.913 641.972 1178.611 651.7 C 1176.907 664.921 1174.095 677.871 1169.687 690.501 C 1160.056 717.861 1143.987 740.964 1122.246 760.01 C 1111.927 769.125 1100.764 777.165 1088.021 782.891 C 1076.683 788.004 1064.817 791.224 1052.59 793.129 C 1041.357 794.832 1030.193 795.034 1018.962 793.832 C 982.98 790.009 952.222 775.228 927.745 748.371 C 914.81 734.123 905.76 717.54 899.345 699.604 C 893.935 684.571 890.721 669.105 889.417 653.175 C 886.918 621.619 891.336 591.105 903.352 561.845 C 910.268 544.914 919.316 529.339 931.849 515.894 C 951.291 495.058 974.301 479.389 1001.667 470.757 C 1014.899 466.65 1028.58 464.339 1042.429 464.735 C 1067.983 465.443 1092.202 471.577 1114.466 484.402 C 1137.331 497.658 1153.534 516.871 1164.271 540.83 C 1170.184 553.966 1174.001 567.92 1176.806 582.338 Z M 1163.359 541.24 C 1152.696 517.399 1136.699 498.413 1113.965 485.268 C 1091.829 472.494 1067.847 466.427 1042.401 465.735 C 1028.65 465.331 1015.131 467.62 1001.964 471.712 C 974.73 480.28 951.939 495.812 932.581 516.576 C 920.114 529.931 911.163 545.355 904.278 562.224 C 892.294 591.365 887.912 621.65 890.413 653.095 C 891.709 668.964 894.895 684.299 900.285 699.266 C 906.67 717.13 915.619 733.547 928.485 747.699 C 952.808 774.441 983.25 789.061 1019.068 792.838 C 1030.236 794.036 1041.272 793.838 1052.439 792.141 C 1064.612 790.247 1076.347 787.066 1087.609 781.979 C 1100.266 776.305 1111.303 768.345 1121.584 759.26 C 1143.243 740.306 1159.174 717.41 1168.743 690.17 C 1173.135 677.599 1175.923 664.75 1177.619 651.571 C 1178.917 641.899 1179.115 632.234 1179.515 623.832 C 1179.015 609.042 1178.42 595.694 1175.824 582.532 C 1173.029 568.15 1169.246 554.304 1163.359 541.24 Z M 1086.5 646.357 C 1083.085 659.9 1077.334 672.4 1068.298 683.156 C 1061.544 691.204 1053.201 696.689 1042.919 699.024 C 1034.851 700.729 1026.808 700.217 1019.135 697.301 C 1010.269 693.863 1003.159 688.18 997.613 680.633 C 991.28 672.071 987.634 662.265 985.922 651.818 C 982.221 629.843 985.136 608.608 993.451 588.148 C 995.065 584.12 997.186 580.278 999.493 576.567 C 1003.525 570.226 1008.701 564.95 1014.939 560.718 C 1022.71 555.586 1031.638 553.106 1040.442 553.586 C 1049.245 554.065 1058.071 557.515 1065.644 564.059 C 1072.083 569.701 1076.95 576.495 1080.375 584.24 C 1085.989 597.483 1089.109 611.383 1089.715 625.828 C 1089.807 632.893 1088.099 639.661 1086.5 646.357 Z M 1088.715 625.849 C 1088.12 611.496 1085.041 597.79 1079.456 584.634 C 1076.082 576.98 1071.347 570.369 1064.986 564.812 C 1057.56 558.357 1049.035 555.055 1040.388 554.584 C 1031.742 554.114 1023.121 556.484 1015.493 561.55 C 1009.333 565.718 1004.306 570.843 1000.338 577.101 C 998.045 580.789 995.966 584.549 994.379 588.521 C 986.095 608.861 983.209 629.827 986.908 651.652 C 988.596 662.005 992.15 671.599 998.417 680.037 C 1003.871 687.49 1010.761 693.006 1019.494 696.368 C 1027.021 699.252 1034.777 699.741 1042.708 698.047 C 1052.824 695.781 1060.886 690.466 1067.532 682.514 C 1076.496 671.87 1082.145 659.571 1085.529 646.116 C 1087.13 639.414 1088.822 632.782 1088.715 625.849 Z M 1451.305 495.237 C 1453.31 505.271 1453.914 515.329 1453.515 525.454 C 1453.014 539.869 1451.608 554.215 1448.302 568.348 C 1440.975 600.016 1425.397 627.047 1400.946 648.61 C 1386.081 661.751 1368.461 669.51 1348.904 673.027 C 1341.169 674.431 1333.357 674.733 1325.579 675.731 C 1315.577 677.031 1305.56 678.233 1295.56 679.433 C 1294.524 679.518 1294.035 679.705 1293.688 680.093 C 1293.34 680.482 1293.209 681.011 1293.115 681.959 C 1293.115 682.95 1293.115 683.835 1293.115 684.835 C 1293.115 717.835 1293.115 750.735 1293.115 783.735 C 1293.115 787.607 1293.308 789.597 1292.409 790.511 C 1291.508 791.426 1289.536 791.235 1285.715 791.235 C 1258.715 791.235 1231.615 791.235 1204.615 791.235 C 1203.815 791.235 1202.99 791.233 1202.162 791.132 C 1201.398 791.069 1200.738 790.84 1200.324 790.426 C 1199.91 790.012 1199.679 789.321 1199.615 788.556 C 1199.515 786.145 1199.515 783.735 1199.515 781.335 C 1199.515 728.735 1199.515 665.035 1199.515 612.435 C 1199.515 555.835 1199.515 499.135 1199.515 442.535 C 1199.515 440.522 1199.615 438.622 1199.615 436.735 C 1199.615 435.915 1199.84 435.146 1200.263 434.621 C 1200.686 434.097 1201.39 433.722 1202.21 433.546 C 1204.994 432.95 1207.787 432.152 1210.595 431.45 C 1228.394 427.05 1246.197 422.549 1263.998 418.149 C 1277.313 414.946 1290.821 412.544 1304.316 409.845 C 1313.121 408.044 1321.943 406.441 1330.859 405.438 C 1344.278 403.937 1357.762 403.442 1371.126 406.448 C 1390.898 410.976 1407.725 420.95 1421.481 435.795 C 1437.123 452.655 1446.885 472.675 1451.305 495.237 Z M 1420.749 436.475 C 1407.105 421.72 1390.532 411.894 1370.904 407.423 C 1357.669 404.429 1344.352 404.933 1330.971 406.432 C 1322.087 407.429 1313.31 409.026 1304.515 410.825 C 1291.01 413.526 1277.518 415.924 1264.233 419.121 C 1246.435 423.52 1228.637 428.02 1210.836 432.42 C 1208.044 433.118 1205.236 433.92 1202.42 434.524 C 1201.74 434.648 1201.344 434.873 1201.042 435.249 C 1200.74 435.624 1200.615 436.055 1200.615 436.735 C 1200.615 438.648 1200.515 440.548 1200.515 442.535 C 1200.515 499.135 1200.515 555.835 1200.515 612.435 C 1200.515 665.035 1200.515 728.735 1200.515 781.335 C 1200.515 783.735 1200.515 786.123 1200.614 788.512 C 1200.652 789.139 1200.77 789.458 1201.031 789.719 C 1201.292 789.98 1201.615 790.1 1202.251 790.136 C 1203.02 790.234 1203.815 790.235 1204.615 790.235 C 1231.615 790.235 1258.715 790.235 1285.715 790.235 C 1289.594 790.235 1291.072 790.444 1291.696 789.809 C 1292.322 789.173 1292.115 787.663 1292.115 783.735 C 1292.115 750.735 1292.115 717.835 1292.115 684.835 C 1292.115 683.835 1292.115 682.935 1292.115 681.935 C 1292.221 680.899 1292.44 679.988 1292.942 679.427 C 1293.445 678.865 1294.296 678.553 1295.46 678.438 C 1305.458 677.238 1315.453 676.039 1325.451 674.739 C 1333.273 673.737 1341.061 673.439 1348.726 672.043 C 1368.169 668.56 1385.549 660.919 1400.284 647.861 C 1424.632 626.423 1440.055 599.654 1447.328 568.122 C 1450.622 554.055 1452.016 539.802 1452.515 525.418 C 1452.916 515.343 1452.32 505.399 1450.325 495.433 C 1445.945 472.995 1436.307 453.215 1420.749 436.475 Z M 1342.891 566.864 C 1335.212 575.625 1325.344 580.409 1313.861 581.633 C 1309.567 582.032 1305.264 582.533 1301.065 583.033 C 1300.067 583.132 1299.143 583.235 1298.115 583.235 C 1297.572 583.235 1297.012 583.011 1296.67 582.684 C 1296.329 582.359 1296.088 581.799 1296.016 581.271 C 1295.916 579.869 1295.815 578.352 1295.815 576.935 C 1295.815 565.135 1295.815 553.335 1295.815 541.435 C 1295.815 529.335 1295.815 517.135 1295.815 505.035 C 1295.815 504.235 1295.815 503.435 1295.815 502.635 C 1295.815 501.781 1295.997 500.964 1296.393 500.342 C 1296.789 499.72 1297.492 499.197 1298.357 498.861 C 1300.433 498.17 1302.443 497.267 1304.67 496.557 C 1311.287 494.552 1317.972 493.041 1325.031 493.135 C 1328.156 493.237 1331.218 493.648 1334.157 494.556 C 1340.641 496.397 1345.771 500.293 1349.527 505.852 C 1353.258 511.315 1355.301 517.428 1356.112 523.876 C 1358.003 540.078 1353.642 554.571 1342.891 566.864 Z M 1355.119 523.995 C 1354.329 517.644 1352.372 511.755 1348.703 506.418 C 1345.059 500.977 1340.196 497.275 1333.88 495.516 C 1331.021 494.625 1328.077 494.233 1325.003 494.135 C 1318.064 494.029 1311.545 495.518 1304.963 497.513 C 1302.791 498.202 1300.799 499.099 1298.677 499.808 C 1297.951 500.071 1297.541 500.4 1297.237 500.878 C 1296.933 501.356 1296.815 501.889 1296.815 502.635 C 1296.815 503.435 1296.815 504.235 1296.815 505.035 C 1296.815 517.135 1296.815 529.335 1296.815 541.435 C 1296.815 553.335 1296.815 565.135 1296.815 576.935 C 1296.815 578.318 1296.914 579.801 1297.014 581.199 C 1297.042 581.571 1297.151 581.761 1297.36 581.961 C 1297.568 582.159 1297.758 582.235 1298.115 582.235 C 1299.087 582.235 1299.96 582.138 1300.961 582.038 C 1305.16 581.538 1309.461 581.038 1313.766 580.637 C 1325.082 579.46 1334.618 574.846 1342.138 566.206 C 1352.787 554.099 1357.027 539.993 1355.119 523.996 Z M 770.791 638.687 C 768 647.452 766.511 656.265 767.014 665.41 C 767.507 675.46 769.979 685.058 774.659 694.105 C 779.108 702.738 785.664 708.915 795.07 711.96 C 799.608 713.448 804.331 713.735 809.115 713.735 C 815.711 713.735 822.21 713.635 828.813 713.635 C 842.114 713.535 855.317 713.535 868.615 713.435 C 869.415 713.435 870.225 713.435 871.025 713.435 C 873.575 713.485 875.102 713.536 875.888 714.351 C 876.668 715.161 876.715 716.73 876.715 719.435 C 876.715 741.235 876.715 762.935 876.715 784.735 C 876.715 786.723 876.814 788.834 876.715 790.957 C 876.659 792.351 876.435 793.355 875.817 793.927 C 875.206 794.494 874.15 794.681 872.715 794.735 C 871.515 794.735 870.415 794.735 869.315 794.735 C 855.582 794.735 841.848 794.735 828.115 794.735 L 828.115 794.835 C 815.315 794.835 802.015 794.835 789.215 794.835 C 780.987 794.835 772.837 793.928 764.815 792.325 C 746.046 788.5 729.827 779.739 715.876 766.903 C 699.526 751.838 689.45 733.304 685.125 711.433 C 681.621 693.911 679.717 676.253 680.315 658.418 C 681.426 626.553 690.465 597.227 707.694 570.465 C 713.405 561.55 719.835 553.011 727.155 545.388 C 742.506 529.448 760.826 518.378 782.396 513.049 C 788.926 511.444 795.654 510.639 802.25 509.739 C 810.65 508.639 819.046 507.54 827.443 506.34 C 836.94 504.941 846.341 503.44 855.842 501.94 C 861.237 501.141 866.548 500.24 871.953 499.439 C 872.723 499.344 873.544 499.145 874.4 499.135 C 874.926 499.101 875.487 499.227 875.865 499.51 C 876.244 499.795 876.527 500.306 876.608 500.853 C 876.811 502.075 876.915 503.416 876.915 504.735 C 876.915 528.735 876.915 552.735 876.915 576.735 C 876.915 579.046 876.842 580.431 876.107 581.225 C 875.375 582.015 873.984 582.23 871.681 582.531 C 857.08 584.531 842.482 586.43 827.988 588.63 C 812.424 590.9 799.816 597.989 790.199 607.245 C 780.587 616.497 774.069 627.839 770.791 638.687 Z M 789.506 606.525 C 799.214 597.181 812.105 589.97 827.841 587.641 C 842.346 585.44 856.949 583.539 871.547 581.54 C 873.843 581.24 874.855 581.105 875.373 580.545 C 875.888 579.989 875.915 579.024 875.915 576.735 C 875.915 552.735 875.915 528.735 875.915 504.735 C 875.915 503.454 875.819 502.195 875.622 501.017 C 875.603 500.664 875.486 500.475 875.265 500.31 C 875.043 500.143 874.832 500.076 874.47 500.132 L 874.448 500.135 L 874.415 500.135 C 873.676 500.128 872.911 500.325 872.083 500.43 C 866.69 501.229 861.396 502.128 855.991 502.929 C 846.492 504.429 837.091 505.929 827.588 507.33 C 819.185 508.53 810.781 509.631 802.381 510.731 C 795.778 511.631 789.104 512.426 782.635 514.02 C 761.204 519.292 743.125 530.222 727.876 546.081 C 720.595 553.659 714.225 562.12 708.536 571.005 C 691.365 597.643 682.404 626.717 681.315 658.452 C 680.713 676.217 682.609 693.759 686.105 711.237 C 690.38 732.966 700.304 751.232 716.554 766.167 C 730.403 778.931 746.383 787.57 765.014 791.345 C 772.992 792.941 781.043 793.835 789.215 793.835 C 802.015 793.835 814.315 793.835 827.115 793.835 L 827.115 793.735 C 841.015 793.735 855.415 793.735 869.315 793.735 C 870.415 793.735 871.507 793.735 872.707 793.735 C 874.066 793.688 874.725 793.576 875.138 793.193 C 875.545 792.815 875.671 792.222 875.715 790.916 C 875.815 788.84 875.715 786.747 875.715 784.735 C 875.715 762.935 875.715 741.235 875.715 719.435 C 875.715 716.74 875.712 715.609 875.167 715.044 C 874.628 714.484 873.557 714.485 871.01 714.435 C 870.212 714.435 869.416 714.435 868.617 714.435 C 855.316 714.535 842.117 714.535 828.819 714.635 C 822.223 714.635 815.719 714.735 809.115 714.735 C 804.299 714.735 799.422 714.422 794.76 712.91 C 785.166 709.755 778.322 703.332 773.771 694.565 C 769.051 685.412 766.523 675.61 766.016 665.46 C 765.519 656.205 767.029 647.221 769.837 638.387 C 773.16 627.436 779.793 615.873 789.506 606.525 Z" style="fill: none;"/>
  <path style="stroke: rgb(0, 0, 0); fill: rgb(219, 37, 13); stroke-opacity: 0;" d="M 250.929 111.457 C 252.73 111.405 309.721 112.317 309.721 112.317 L 310.341 167.501 L 307.901 389.781 L 251.26 391.359 L 250.929 111.457 Z"/>
</svg>